<?xml version="1.0" encoding="utf-8"?>
<svg version="1.1" xmlns:xlink="http://www.w3.org/1999/xlink" width="100px" height="100px" xmlns="http://www.w3.org/2000/svg">
  <g transform="matrix(1 0 0 1 -540 -491 )">
    <path d="M 590 502  C 611.84 502  629 519.16  629 541  C 629 562.84  611.84 580  590 580  C 568.16 580  551 562.84  551 541  C 551 519.16  568.16 502  590 502  Z " fill-rule="nonzero" fill="#ffffff" stroke="none" />
    <path d="M 590 497  C 614.64 497  634 516.36  634 541  C 634 565.64  614.64 585  590 585  C 565.36 585  546 565.64  546 541  C 546 516.36  565.36 497  590 497  Z " stroke-width="12" stroke="#facd91" fill="none" />
  </g>
</svg>