<?xml version="1.0" encoding="utf-8"?>
<svg version="1.1" xmlns:xlink="http://www.w3.org/1999/xlink" width="100px" height="100px" xmlns="http://www.w3.org/2000/svg">
  <g transform="matrix(1 0 0 1 -692 -491 )">
    <path d="M 742 502  C 763.84 502  781 519.16  781 541  C 781 562.84  763.84 580  742 580  C 720.16 580  703 562.84  703 541  C 703 519.16  720.16 502  742 502  Z " fill-rule="nonzero" fill="#ffffff" stroke="none" />
    <path d="M 742 497  C 766.64 497  786 516.36  786 541  C 786 565.64  766.64 585  742 585  C 717.36 585  698 565.64  698 541  C 698 516.36  717.36 497  742 497  Z " stroke-width="12" stroke="#81d3f8" fill="none" />
  </g>
</svg>