<?xml version="1.0" encoding="utf-8"?>
<svg version="1.1" xmlns:xlink="http://www.w3.org/1999/xlink" width="100px" height="100px" xmlns="http://www.w3.org/2000/svg">
  <g transform="matrix(1 0 0 1 -845 -491 )">
    <path d="M 895 502  C 916.84 502  934 519.16  934 541  C 934 562.84  916.84 580  895 580  C 873.16 580  856 562.84  856 541  C 856 519.16  873.16 502  895 502  Z " fill-rule="nonzero" fill="#ffffff" stroke="none" />
    <path d="M 895 497  C 919.64 497  939 516.36  939 541  C 939 565.64  919.64 585  895 585  C 870.36 585  851 565.64  851 541  C 851 516.36  870.36 497  895 497  Z " stroke-width="12" stroke="#caf982" fill="none" />
  </g>
</svg>