<?xml version="1.0" encoding="utf-8"?>
<svg version="1.1" xmlns:xlink="http://www.w3.org/1999/xlink" width="25px" height="25px" xmlns="http://www.w3.org/2000/svg">
  <g transform="matrix(1 0 0 1 -822 -632 )">
    <path d="M 834.5 634  C 840.38 634  845 638.62  845 644.5  C 845 650.38  840.38 655  834.5 655  C 828.62 655  824 650.38  824 644.5  C 824 638.62  828.62 634  834.5 634  Z " fill-rule="nonzero" fill="#ffffff" stroke="none" />
    <path d="M 834.5 633.5  C 840.66 633.5  845.5 638.34  845.5 644.5  C 845.5 650.66  840.66 655.5  834.5 655.5  C 828.34 655.5  823.5 650.66  823.5 644.5  C 823.5 638.34  828.34 633.5  834.5 633.5  Z " stroke-width="3" stroke="#c280ff" fill="none" />
  </g>
</svg>