<?xml version="1.0" encoding="utf-8"?>
<svg version="1.1" xmlns:xlink="http://www.w3.org/1999/xlink" width="18px" height="19px" xmlns="http://www.w3.org/2000/svg">
  <g transform="matrix(1 0 0 1 -585 -475 )">
    <path d="M 594 477  C 597.92 477  601 480.3  601 484.5  C 601 488.7  597.92 492  594 492  C 590.08 492  587 488.7  587 484.5  C 587 480.3  590.08 477  594 477  Z " fill-rule="nonzero" fill="#ffffff" stroke="none" />
    <path d="M 594 476.5  C 598.2 476.5  601.5 480.02  601.5 484.5  C 601.5 488.98  598.2 492.5  594 492.5  C 589.8 492.5  586.5 488.98  586.5 484.5  C 586.5 480.02  589.8 476.5  594 476.5  Z " stroke-width="3" stroke="#c280ff" fill="none" />
  </g>
</svg>